<mxfile host="app.diagrams.net" modified="2022-10-21T03:25:34.877Z" agent="5.0 (Macintosh; Intel Mac OS X 10_15_7) AppleWebKit/537.36 (KHTML, like Gecko) Chrome/106.0.0.0 Safari/537.36" etag="IHT4vNbhXA6FLG-Ty89L" version="20.1.1" type="github">
  <diagram id="8avdKmQIJuhL11ifhj01" name="Page-1">
    <mxGraphModel dx="946" dy="532" grid="1" gridSize="10" guides="1" tooltips="1" connect="1" arrows="1" fold="1" page="1" pageScale="1" pageWidth="827" pageHeight="1169" math="0" shadow="0">
      <root>
        <mxCell id="0" />
        <mxCell id="1" parent="0" />
      </root>
    </mxGraphModel>
  </diagram>
</mxfile>
